<svg width="548" height="517" viewBox="0 0 548 517" fill="none" xmlns="http://www.w3.org/2000/svg">
  <g clip-path="url(#clip0_4664_35456)">
    <path d="M442.189 103.283H103.525V440.641H442.189V103.283Z" fill="#AAE0FF"/>
    <path d="M2.99258 516.7H545.007C546.66 516.7 548 515.36 548 513.707C548 512.055 546.66 510.715 545.007 510.715H2.99258C1.33982 510.715 0 512.055 0 513.707C0 515.36 1.33982 516.7 2.99258 516.7Z" fill="#2D5B98"/>
    <path d="M149.047 487.003C132.321 487.003 118.759 473.444 118.759 456.716V415.426H179.335V456.716C179.335 473.444 165.775 487.003 149.047 487.003Z" fill="#5896FA"/>
    <path d="M118.762 446.635H115.405V510.721H118.762V446.635Z" fill="#0E0E0E"/>
    <path d="M182.692 446.635H179.335V510.721H182.692V446.635Z" fill="#0E0E0E"/>
    <path d="M157.003 446.635H153.646V510.721H157.003V446.635Z" fill="#0E0E0E"/>
    <path d="M179.491 487.002H115.405V490.359H179.491V487.002Z" fill="#0E0E0E"/>
    <path d="M196.217 347.211C199.872 352.475 192.516 357.013 191.369 364.311C190.222 371.609 198.581 375.714 189.716 385.269C184.257 391.154 179.645 383.338 175.208 392.357C170.77 401.376 174.267 402.897 169.279 406.141C160.582 411.799 147.277 399.296 151.751 390.286C156.226 381.277 165.279 382.083 161.091 374.67C156.903 367.257 155.345 364.064 162.568 360.255C171.506 355.541 179.381 359.871 180.103 352.974C180.819 346.077 191.381 340.248 196.217 347.211Z" fill="#FFCA59"/>
    <path d="M158.008 415.011L156.504 414.712C163.551 379.092 186.914 354.152 187.149 353.902L188.261 354.959C188.029 355.205 164.966 379.841 158.008 415.011Z" fill="#0E0E0E"/>
    <path d="M79.0761 334.05C75.2962 341.752 85.9463 346.277 88.9291 355.705C91.9119 365.133 80.9269 368.463 94.5793 379.325C102.99 386.015 104.748 381.834 107.841 396.799C110.562 409.975 120.574 397.437 128.06 405.171C137.72 415.148 152.815 393.249 145.082 382.228C137.348 371.206 128.324 374.057 132.375 363.404C136.427 352.754 131.595 344.727 121.273 341.141C108.496 336.698 103.902 347.422 101.562 338.439C99.2247 329.456 84.0735 323.865 79.0761 334.05Z" fill="#ED5A24"/>
    <path d="M143.272 416.085C126.982 370.918 91.5156 342.98 91.1611 342.701L92.4203 341.08C92.7821 341.361 128.713 369.669 145.204 415.389L143.272 416.085Z" fill="#0E0E0E"/>
    <path d="M187.66 291.055C259.2 291.055 317.194 233.061 317.194 161.521C317.194 89.9809 259.2 31.9863 187.66 31.9863C116.12 31.9863 58.1255 89.9809 58.1255 161.521C58.1255 233.061 116.12 291.055 187.66 291.055Z" stroke="#2E77E6" stroke-width="2.13456" stroke-miterlimit="10" stroke-dasharray="3.2 3.2"/>
    <path d="M220.456 153.021C220.593 152.011 220.688 150.986 220.688 149.938C220.688 137.329 210.468 127.109 197.86 127.109C188.401 127.109 180.286 132.862 176.824 141.058C174.005 138.547 170.301 137.009 166.23 137.009C157.419 137.009 150.277 144.15 150.277 152.962H147.299C138.827 152.962 131.896 159.893 131.896 168.365C131.896 176.837 138.827 183.768 147.299 183.768H219.319C227.791 183.768 234.722 176.837 234.722 168.365C234.722 160.277 228.402 153.607 220.456 153.021Z" fill="white"/>
    <path d="M234.622 320.576H138.196C134.952 320.576 132.321 317.945 132.321 314.701V233.803C132.321 230.558 134.952 227.928 138.196 227.928H234.622C237.866 227.928 240.497 230.558 240.497 233.803V314.698C240.499 317.942 237.869 320.576 234.622 320.576Z" fill="#5896FA"/>
    <path d="M219.16 283.866H153.946C151.812 283.866 150.066 282.12 150.066 279.986C150.066 277.851 151.812 276.105 153.946 276.105H219.16C221.294 276.105 223.04 277.851 223.04 279.986C223.04 282.12 221.294 283.866 219.16 283.866Z" fill="white"/>
    <path d="M219.16 296.362H153.946C151.812 296.362 150.066 294.616 150.066 292.482C150.066 290.347 151.812 288.602 153.946 288.602H219.16C221.294 288.602 223.04 290.347 223.04 292.482C223.04 294.616 221.294 296.362 219.16 296.362Z" fill="white"/>
    <path d="M166.125 292.828C166.125 293.583 165.513 294.194 164.758 294.194C164.002 294.194 163.391 293.583 163.391 292.828C163.391 292.072 164.002 291.461 164.758 291.461C165.511 291.461 166.125 292.075 166.125 292.828Z" fill="#80B2FF"/>
    <path d="M170.807 292.828C170.807 293.583 170.195 294.194 169.44 294.194C168.684 294.194 168.073 293.583 168.073 292.828C168.073 292.072 168.684 291.461 169.44 291.461C170.195 291.461 170.807 292.075 170.807 292.828Z" fill="#80B2FF"/>
    <path d="M175.491 292.828C175.491 293.583 174.88 294.194 174.125 294.194C173.369 294.194 172.758 293.583 172.758 292.828C172.758 292.072 173.369 291.461 174.125 291.461C174.88 291.461 175.491 292.075 175.491 292.828Z" fill="#80B2FF"/>
    <path d="M180.173 292.828C180.173 293.583 179.562 294.194 178.807 294.194C178.051 294.194 177.44 293.583 177.44 292.828C177.44 292.072 178.051 291.461 178.807 291.461C179.562 291.461 180.173 292.075 180.173 292.828Z" fill="#80B2FF"/>
    <path d="M184.858 292.828C184.858 293.583 184.247 294.194 183.491 294.194C182.736 294.194 182.125 293.583 182.125 292.828C182.125 292.072 182.736 291.461 183.491 291.461C184.247 291.461 184.858 292.075 184.858 292.828Z" fill="#80B2FF"/>
    <path d="M189.542 292.828C189.542 293.583 188.931 294.194 188.175 294.194C187.42 294.194 186.809 293.583 186.809 292.828C186.809 292.072 187.42 291.461 188.175 291.461C188.931 291.461 189.542 292.075 189.542 292.828Z" fill="#80B2FF"/>
    <path d="M194.224 292.828C194.224 293.583 193.613 294.194 192.857 294.194C192.102 294.194 191.491 293.583 191.491 292.828C191.491 292.072 192.102 291.461 192.857 291.461C193.613 291.461 194.224 292.075 194.224 292.828Z" fill="#80B2FF"/>
    <path d="M198.909 292.828C198.909 293.583 198.297 294.194 197.542 294.194C196.787 294.194 196.175 293.583 196.175 292.828C196.175 292.072 196.787 291.461 197.542 291.461C198.297 291.461 198.909 292.075 198.909 292.828Z" fill="#80B2FF"/>
    <path d="M203.593 292.828C203.593 293.583 202.982 294.194 202.227 294.194C201.471 294.194 200.86 293.583 200.86 292.828C200.86 292.072 201.471 291.461 202.227 291.461C202.982 291.461 203.593 292.075 203.593 292.828Z" fill="#80B2FF"/>
    <path d="M186.576 265.249C194.855 265.249 201.566 258.538 201.566 250.259C201.566 241.981 194.855 235.27 186.576 235.27C178.298 235.27 171.586 241.981 171.586 250.259C171.586 258.538 178.298 265.249 186.576 265.249Z" fill="white"/>
    <path d="M186.596 249.656C188.058 249.656 189.41 248.942 190.273 247.854C190.911 247.067 191.286 246.052 191.286 244.928C191.286 242.339 189.183 240.199 186.594 240.199C183.968 240.199 181.865 242.339 181.865 244.928C181.865 246.055 182.239 247.067 182.877 247.854C183.745 248.945 185.095 249.656 186.596 249.656Z" fill="#005CEA"/>
    <path d="M194.906 258.084C194.906 261.069 178.242 261.069 178.242 258.084L178.247 254.607C178.904 249.854 193.552 249.654 194.909 254.607L194.906 258.084Z" fill="#005CEA"/>
    <path d="M157.181 291.769V291.561C157.181 290.72 156.497 290.035 155.656 290.035C154.815 290.035 154.13 290.72 154.13 291.561V291.769H153.898V294.519C153.898 294.993 157.424 294.993 157.424 294.519V291.769H157.181ZM154.673 291.561C154.673 291.033 154.998 290.553 155.656 290.553C156.311 290.553 156.648 291.003 156.648 291.561V291.769H154.673V291.561ZM155.915 293.155V293.949C155.915 294.091 155.793 294.194 155.651 294.194C155.509 294.194 155.406 294.091 155.406 293.949V293.155C155.265 293.074 155.162 292.93 155.162 292.747C155.162 292.483 155.387 292.258 155.651 292.258C155.915 292.258 156.14 292.483 156.14 292.747C156.137 292.93 156.037 293.072 155.915 293.155Z" fill="#5896FA"/>
    <path d="M155.658 279.7C155.966 279.7 156.252 279.549 156.433 279.321C156.567 279.155 156.645 278.942 156.645 278.703C156.645 278.157 156.203 277.705 155.655 277.705C155.1 277.705 154.658 278.157 154.658 278.703C154.658 278.94 154.736 279.155 154.87 279.321C155.056 279.549 155.34 279.7 155.658 279.7Z" fill="#5896FA"/>
    <path d="M157.411 281.48C157.411 282.111 153.875 282.111 153.875 281.48L153.895 280.747C154.034 279.745 157.125 279.7 157.411 280.747V281.48Z" fill="#5896FA"/>
    <path d="M178.501 281.124H164.21C163.584 281.124 163.071 280.611 163.071 279.985C163.071 279.359 163.584 278.846 164.21 278.846H178.501C179.127 278.846 179.64 279.359 179.64 279.985C179.64 280.611 179.127 281.124 178.501 281.124Z" fill="#80B2FF"/>
    <path d="M197.349 281.124H183.058C182.432 281.124 181.919 280.611 181.919 279.985C181.919 279.359 182.432 278.846 183.058 278.846H197.349C197.975 278.846 198.488 279.359 198.488 279.985C198.488 280.611 197.975 281.124 197.349 281.124Z" fill="#80B2FF"/>
    <path d="M191.334 308.474H178.384C176.548 308.474 175.059 306.985 175.059 305.149C175.059 303.313 176.548 301.824 178.384 301.824H191.334C193.171 301.824 194.66 303.313 194.66 305.149C194.657 306.985 193.171 308.474 191.334 308.474Z" fill="#1251B3"/>
    <path d="M21.8228 173.13C21.8228 173.021 21.8228 172.975 21.8228 172.965C21.8252 172.982 21.8228 173.13 21.8228 173.13Z" fill="#D9FFFF"/>
    <path d="M21.8228 173.13C21.8228 173.021 21.8228 172.975 21.8228 172.965C21.8252 172.982 21.8228 173.13 21.8228 173.13Z" fill="#D9FFFF"/>
    <path d="M53.8293 155.904C46.4017 163.863 34.5462 170.383 21.862 173.163C21.8571 174.011 21.8375 178.703 21.7397 200.338C21.6101 229.198 49.0764 243.3 53.3403 245.464C57.4723 243.562 85.2833 229.482 85.4128 200.622C85.5106 178.989 85.5302 174.295 85.5351 173.447C72.8753 170.557 61.1861 163.929 53.8293 155.904Z" fill="white"/>
    <path d="M53.7539 161.127C46.4802 167.799 36.3998 173.046 25.3194 175.904L25.2094 200.356C25.1605 211.544 29.6029 221.666 38.4217 230.441C44.2138 236.206 50.3065 239.783 53.3969 241.389C53.5289 241.32 53.6756 241.245 53.8199 241.171V161.183C53.7954 161.164 53.7734 161.147 53.7539 161.127Z" fill="#296ACC"/>
    <path d="M53.8149 161.182V241.167C57.0276 239.495 62.8709 236.04 68.4649 230.571C77.3595 221.877 81.8949 211.794 81.9438 200.606L82.0538 176.154C71.0296 173.206 61.025 167.893 53.8149 161.182Z" fill="#2E77E6"/>
    <path d="M40.9399 196.426V215.369C40.9399 217.479 66.6948 217.479 66.6948 215.369V196.426H40.9399ZM55.118 206.484V211.853C55.118 212.567 54.5362 213.161 53.8222 213.161C53.0961 213.161 52.5142 212.567 52.5142 211.853V206.472C51.4115 205.976 50.6365 204.861 50.6365 203.575C50.6365 201.817 52.0668 200.399 53.8247 200.399C55.5826 200.399 57.0006 201.817 57.0006 203.575C56.9982 204.873 56.2329 205.988 55.118 206.484Z" fill="white"/>
    <path d="M64.4383 195.075H61.832V193.799C61.832 189.379 58.2355 185.785 53.8175 185.785C49.3971 185.785 45.8031 189.381 45.8031 193.799V195.075H43.1968V193.799C43.1968 187.941 47.9619 183.176 53.82 183.176C59.6756 183.176 64.4407 187.941 64.4407 193.799V195.075H64.4383Z" fill="white"/>
    <path d="M244.453 0H197.931V58.0694H244.453V0Z" fill="#296ACC"/>
    <path d="M250.487 5.99219H203.965V64.0615H250.487V5.99219Z" fill="white" stroke="#5896FA" stroke-width="1.55023" stroke-miterlimit="10"/>
    <path d="M258.147 11.8867H211.625V69.9561H258.147V11.8867Z" fill="white" stroke="#5896FA" stroke-width="1.55023" stroke-miterlimit="10"/>
    <path d="M263.722 17.8828H217.2V75.9522H263.722V17.8828Z" fill="#5896FA"/>
    <path d="M256.482 27.416H232.419V31.1934H256.482V27.416Z" fill="#005CEA"/>
    <path d="M256.485 36.291H225.305V40.0684H256.485V36.291Z" fill="#005CEA"/>
    <path d="M256.485 45.1621H225.305V48.9395H256.485V45.1621Z" fill="#005CEA"/>
    <path d="M256.485 54.0352H225.305V57.8126H256.485V54.0352Z" fill="#005CEA"/>
    <path d="M256.485 62.9082H225.305V66.6856H256.485V62.9082Z" fill="#005CEA"/>
    <path d="M111.882 66.8781C113.908 58.0337 108.381 49.2213 99.5364 47.1951C90.692 45.1689 81.8796 50.6961 79.8534 59.5405C77.8271 68.3849 83.3544 77.1973 92.1988 79.2235C101.043 81.2497 109.856 75.7225 111.882 66.8781Z" fill="white"/>
    <path d="M121.796 78.8353C123.925 75.3024 125.258 71.4834 125.823 67.6302L127.048 67.8087L129.466 68.1632L129.497 68.1657C130.15 63.7575 129.928 59.2979 128.862 55.0389L125.265 55.9288C124.299 52.0756 122.6 48.4009 120.18 45.1663L123.16 42.9512C120.61 39.4892 117.336 36.4623 113.429 34.1079L111.51 37.2912C107.965 35.1519 104.158 33.8292 100.305 33.2644L100.843 29.5921C96.4347 28.9393 91.9678 29.174 87.7161 30.2278L88.6061 33.8243C84.7504 34.7876 81.0781 36.4892 77.8435 38.9097L75.6284 35.9294C72.1664 38.4794 69.1396 41.7532 66.7851 45.6601L69.9684 47.5794C67.8316 51.1245 66.5064 54.9313 65.9416 58.7845L63.3427 58.4031L62.2816 58.2564L62.2694 58.249C61.6166 62.6572 61.8513 67.1241 62.905 71.3758L66.5015 70.4859C67.4673 74.3391 69.1763 78.0187 71.5992 81.2558L68.6188 83.4709C71.1689 86.9329 74.4304 89.9524 78.3374 92.3068L80.2567 89.1235C83.8018 91.2604 87.6208 92.5929 91.474 93.1577L91.051 96.0109L90.9361 96.8299C95.3443 97.4827 99.7989 97.2407 104.051 96.1869L103.161 92.5904C107.014 91.6247 110.693 89.9157 113.943 87.5001L116.158 90.4805C119.608 87.9231 122.627 84.6615 124.982 80.7546L121.796 78.8353ZM87.3934 77.2803C79.6161 72.591 77.1149 62.4983 81.8067 54.721C86.4888 46.956 96.5814 44.4572 104.359 49.1466C112.124 53.8311 114.625 63.9213 109.94 71.6863C105.251 79.4636 95.1585 81.9624 87.3934 77.2803Z" fill="#005CEA"/>
    <path d="M60.3012 76.6518C59.1032 74.8401 57.5873 73.3438 55.8832 72.2044L56.2451 71.6617L56.9614 70.5932L56.9688 70.5786C55.0201 69.273 52.8491 68.3708 50.5826 67.9136L50.1939 69.8255C48.1426 69.4123 46.0131 69.3928 43.9251 69.8133L43.5461 67.8965C41.3237 68.3268 39.1453 69.1996 37.1429 70.5248L38.2235 72.158C36.4045 73.3609 34.9155 74.8718 33.7762 76.576L32.1503 75.4904C30.8448 77.439 29.945 79.6174 29.4854 81.8766L31.3973 82.2653C30.9841 84.3166 30.9646 86.4461 31.3851 88.5341L29.4683 88.913C29.8986 91.1355 30.7714 93.3139 32.0966 95.3163L33.7298 94.2356C34.9327 96.0547 36.4436 97.5436 38.1477 98.6829L37.38 99.8321L37.0695 100.304L37.0622 100.309C39.0108 101.614 41.1892 102.514 43.4483 102.974L43.8371 101.062C45.8884 101.475 48.0252 101.492 50.1107 101.072L50.4897 102.988C52.7121 102.558 54.8857 101.69 56.8881 100.363L55.8074 98.7294C57.6264 97.5265 59.1203 96.0131 60.2596 94.3065L61.5212 95.1525L61.8855 95.3921C63.1911 93.4435 64.0835 91.2699 64.5431 89.0108L62.6312 88.6221C63.0444 86.5708 63.0615 84.4339 62.6459 82.3435L64.5627 81.9646C64.125 79.747 63.2571 77.5735 61.9319 75.5711L60.3012 76.6518ZM51.788 92.6611C47.8003 95.2992 42.4361 94.2087 39.7981 90.2211C37.1624 86.2383 38.2553 80.8766 42.243 78.2361C46.2258 75.6004 51.5875 76.6933 54.2231 80.6761C56.8612 84.6613 55.7707 90.0255 51.788 92.6611Z" fill="#1251B3"/>
    <path d="M329.03 110.041H289.085C288.244 110.041 287.562 109.359 287.562 108.518V85.8533C287.562 85.0122 288.244 84.3301 289.085 84.3301H329.03C329.871 84.3301 330.554 85.0122 330.554 85.8533V108.518C330.554 109.359 329.871 110.041 329.03 110.041Z" fill="#005CEA"/>
    <path d="M330.551 89.1855H287.562V93.6231H330.551V89.1855Z" fill="#5896FA"/>
    <path d="M297.41 105.107H291.09C290.689 105.107 290.361 105.433 290.361 105.836C290.361 106.237 290.686 106.565 291.09 106.565H297.41C297.811 106.565 298.139 106.239 298.139 105.836C298.136 105.433 297.811 105.107 297.41 105.107Z" fill="#D1F5FF"/>
    <path d="M307.129 105.107H300.809C300.408 105.107 300.08 105.433 300.08 105.836C300.08 106.237 300.405 106.565 300.809 106.565H307.129C307.53 106.565 307.857 106.239 307.857 105.836C307.857 105.433 307.532 105.107 307.129 105.107Z" fill="#D1F5FF"/>
    <path d="M316.849 105.107H310.529C310.128 105.107 309.801 105.433 309.801 105.836C309.801 106.237 310.126 106.565 310.529 106.565H316.849C317.25 106.565 317.578 106.239 317.578 105.836C317.578 105.433 317.25 105.107 316.849 105.107Z" fill="#D1F5FF"/>
    <path d="M326.571 105.107H320.251C319.85 105.107 319.522 105.433 319.522 105.836C319.522 106.237 319.847 106.565 320.251 106.565H326.571C326.972 106.565 327.299 106.239 327.299 105.836C327.297 105.433 326.972 105.107 326.571 105.107Z" fill="#D1F5FF"/>
    <path d="M290.797 85.6367C290.354 85.6367 289.995 85.9961 289.995 86.4387V86.7198C289.995 87.1623 290.354 87.5218 290.797 87.5218C291.239 87.5218 291.599 87.1623 291.599 86.7198V86.4387C291.601 85.9961 291.242 85.6367 290.797 85.6367Z" fill="#D1F5FF"/>
    <path d="M292.528 86.5805C292.528 87.1012 292.951 87.5242 293.472 87.5242H296.816C297.337 87.5242 297.76 87.1012 297.76 86.5805C297.76 86.0597 297.337 85.6367 296.816 85.6367H293.472C292.951 85.6367 292.528 86.0597 292.528 86.5805Z" fill="#D1F5FF"/>
    <path d="M292.088 96.0078H296.408C297.1 96.0078 297.662 96.5701 297.662 97.2621V100.988C297.662 101.68 297.1 102.242 296.408 102.242H292.088C291.396 102.242 290.833 101.68 290.833 100.988V97.2621C290.833 96.5677 291.396 96.0078 292.088 96.0078Z" fill="#5896FA"/>
    <path d="M313.209 175.534V172.597C313.209 171.265 312.129 170.182 310.796 170.182H285.09C283.758 170.182 282.675 171.262 282.675 172.597V224.51H349.164V175.534H313.209Z" fill="#1251B3"/>
    <path d="M351.93 177.314H286.731L282.675 224.506H348.842L351.93 177.314Z" fill="white"/>
    <path d="M349.167 224.508H282.677L289.733 177.903C289.939 176.539 291.112 175.531 292.491 175.531H353.34C355.047 175.531 356.353 177.05 356.098 178.737L349.167 224.508Z" fill="#3383FF"/>
    <path d="M366.896 188.093C372.845 182.143 372.845 172.497 366.896 166.548C360.946 160.599 351.301 160.599 345.351 166.548C339.402 172.497 339.402 182.143 345.351 188.092C351.301 194.042 360.946 194.042 366.896 188.093Z" fill="#005CEA"/>
    <path d="M356.128 193.109C347.419 193.109 340.333 186.024 340.333 177.317C340.333 168.611 347.419 161.525 356.128 161.525C364.837 161.525 371.922 168.611 371.922 177.317C371.922 186.026 364.834 193.109 356.128 193.109ZM356.128 162.64C348.033 162.64 341.451 169.224 341.451 177.317C341.451 185.41 348.033 191.996 356.128 191.996C364.223 191.996 370.805 185.41 370.805 177.317C370.805 169.224 364.223 162.64 356.128 162.64Z" fill="white"/>
    <path d="M348.793 174.561V185.348C348.793 186.548 363.46 186.548 363.46 185.348V174.561H348.793ZM356.869 180.289V183.348C356.869 183.756 356.538 184.093 356.13 184.093C355.717 184.093 355.385 183.756 355.385 183.348V180.284C354.756 180 354.314 179.367 354.314 178.634C354.314 177.634 355.128 176.825 356.128 176.825C357.128 176.825 357.937 177.631 357.937 178.634C357.939 179.37 357.504 180.005 356.869 180.289Z" fill="white"/>
    <path d="M362.177 173.791H360.693V173.064C360.693 170.549 358.644 168.5 356.128 168.5C353.612 168.5 351.563 170.549 351.563 173.064V173.791H350.079V173.064C350.079 169.73 352.793 167.016 356.128 167.016C359.463 167.016 362.177 169.73 362.177 173.064V173.791Z" fill="white"/>
    <path d="M303.224 55.6496C306.446 55.6496 309.058 53.0378 309.058 49.816C309.058 46.5942 306.446 43.9824 303.224 43.9824C300.002 43.9824 297.391 46.5942 297.391 49.816C297.391 53.0378 300.002 55.6496 303.224 55.6496Z" fill="#AAE0FF"/>
    <path d="M155.826 72.5647C156.372 69.3893 154.24 66.3727 151.065 65.8269C147.889 65.2812 144.873 67.4129 144.327 70.5883C143.781 73.7637 145.913 76.7803 149.088 77.3261C152.264 77.8719 155.28 75.7401 155.826 72.5647Z" fill="#AAE0FF"/>
    <path d="M344.125 152.286C345.81 152.286 347.176 150.92 347.176 149.235C347.176 147.55 345.81 146.184 344.125 146.184C342.44 146.184 341.074 147.55 341.074 149.235C341.074 150.92 342.44 152.286 344.125 152.286Z" fill="white"/>
    <path d="M27.7542 155.651C28.1393 154.01 27.1215 152.368 25.481 151.983C23.8405 151.598 22.1985 152.616 21.8134 154.256C21.4284 155.897 22.4461 157.539 24.0866 157.924C25.7271 158.309 27.3692 157.291 27.7542 155.651Z" fill="#AAE0FF"/>
    <path d="M75.0657 271.394C77.9676 269.995 79.1854 266.508 77.7859 263.606C76.3863 260.704 72.8994 259.486 69.9975 260.886C67.0956 262.285 65.8777 265.772 67.2773 268.674C68.6768 271.576 72.1638 272.794 75.0657 271.394Z" fill="#AAE0FF"/>
    <path d="M166.12 13.6806C165.563 13.6806 165.11 13.2283 165.11 12.6708V1.8496C165.11 1.29215 165.563 0.839844 166.12 0.839844C166.678 0.839844 167.13 1.29215 167.13 1.8496V12.6684C167.132 13.2283 166.68 13.6806 166.12 13.6806Z" fill="#AAE0FF"/>
    <path d="M159.7 7.26171C159.7 6.70426 160.152 6.25195 160.709 6.25195H171.528C172.086 6.25195 172.538 6.70426 172.538 7.26171C172.538 7.81915 172.086 8.27146 171.528 8.27146H160.709C160.152 8.27146 159.7 7.81915 159.7 7.26171Z" fill="#AAE0FF"/>
    <path d="M281.142 152.604C280.584 152.604 280.132 152.152 280.132 151.594V140.775C280.132 140.218 280.584 139.766 281.142 139.766C281.699 139.766 282.151 140.218 282.151 140.775V151.594C282.151 152.152 281.699 152.604 281.142 152.604Z" fill="white"/>
    <path d="M274.721 146.182C274.721 145.624 275.174 145.172 275.731 145.172H286.55C287.107 145.172 287.559 145.624 287.559 146.182C287.559 146.739 287.107 147.191 286.55 147.191H275.731C275.174 147.191 274.721 146.739 274.721 146.182Z" fill="white"/>
    <path d="M270.142 295.108C269.585 295.108 269.132 294.656 269.132 294.098V283.279C269.132 282.722 269.585 282.27 270.142 282.27C270.7 282.27 271.152 282.722 271.152 283.279V294.098C271.152 294.656 270.7 295.108 270.142 295.108Z" fill="white"/>
    <path d="M263.722 288.686C263.722 288.128 264.174 287.676 264.731 287.676H275.55C276.108 287.676 276.56 288.128 276.56 288.686C276.56 289.243 276.108 289.695 275.55 289.695H264.731C264.174 289.695 263.722 289.243 263.722 288.686Z" fill="white"/>
    <path d="M180.091 217.586C181.877 217.586 183.325 216.138 183.325 214.352C183.325 212.565 181.877 211.117 180.091 211.117C178.304 211.117 176.856 212.565 176.856 214.352C176.856 216.138 178.304 217.586 180.091 217.586Z" stroke="white" stroke-width="1.03315" stroke-miterlimit="10"/>
    <path d="M259.597 510.679H246.937L245.629 483.154H260.907L259.597 510.679Z" fill="#0E0E0E"/>
    <path d="M479.608 510.679H466.948L465.64 483.154H480.918L479.608 510.679Z" fill="#0E0E0E"/>
    <path d="M468.571 435.382C467.175 439.71 465.655 444.152 463.992 448.709H253.839C253.839 448.709 226.717 338.319 253.839 318.131C254.533 317.615 255.364 317.107 256.335 316.61C292.862 297.841 439.313 293.435 469.046 317.581C469.273 317.759 469.483 317.945 469.686 318.131C480.642 328.189 490.167 368.333 468.571 435.382Z" fill="#EA7B00"/>
    <path d="M333.071 448.709H253.885L261.606 371.34C275.415 377.332 312.177 408.967 333.071 448.709Z" fill="#982C20"/>
    <path d="M468.571 435.384C467.175 439.711 465.655 444.154 463.992 448.711H387.662C400.788 424.367 432.619 387.493 463.528 370.518L468.571 435.384Z" fill="#982C20"/>
    <path d="M494.906 370.258H465.77C460.872 370.258 456.733 373.886 456.09 378.742L446.797 449.004H276.513L267.22 378.742C266.577 373.886 262.438 370.258 257.541 370.258H228.407C222.329 370.258 217.727 375.752 218.796 381.737L234.971 498.746H250.973H487.825H488.341L504.517 381.737C505.585 375.754 500.984 370.258 494.906 370.258Z" fill="#EA7B00"/>
    <path d="M445.1 410.621C458.812 415.21 456.139 444.241 445.1 448.705H278.767C266.345 445.5 265.296 407.097 283.21 409.987C392.85 430.601 398.163 397.714 445.1 410.621Z" fill="#F2B066"/>
    <path d="M318.324 381.199C318.273 388.695 318.676 395.749 319.483 401.93H397.476L402.095 325.775C397.461 297.959 384.78 291.219 364.704 291.219C346.739 291.219 334.774 305.874 327.502 325.492C321.217 342.442 318.434 363.09 318.324 381.199Z" fill="#007880"/>
    <path d="M318.324 382.669L346.548 380.97C330.879 375.84 329.632 351.792 345.561 336.829L327.5 325.492C321.217 342.443 318.434 364.562 318.324 382.669Z" fill="#005459"/>
    <path d="M312.95 417.667H420.106V381.201H323.583L312.95 417.667Z" fill="#0E0E0E"/>
    <path d="M433.798 406.102L405.016 510.686H382.572C389.677 466.181 388.085 437.251 394.769 400.296C400.632 369.959 440.776 377.988 433.798 406.102Z" fill="#0E0E0E"/>
    <path d="M396.955 510.682C396.955 510.614 396.95 510.545 396.95 510.474C396.95 502.721 403.236 496.436 410.989 496.436C418.742 496.436 425.028 502.721 425.028 510.474C425.028 510.543 425.023 510.611 425.023 510.682H396.955Z" fill="#B15626"/>
    <path d="M413.693 496.698L408.591 495.139C405.222 488.513 390.858 489.334 392.858 497.398C387.222 498.236 384.256 495.43 384.256 495.43L382.572 510.681H413.006L413.693 496.698Z" fill="#B15626"/>
    <path d="M307.415 406.102L336.196 510.686H358.641C351.536 466.181 353.127 437.251 346.443 400.296C340.58 369.959 300.437 377.988 307.415 406.102Z" fill="#0E0E0E"/>
    <path d="M344.257 510.682C344.257 510.614 344.262 510.545 344.262 510.474C344.262 502.721 337.976 496.436 330.223 496.436C322.47 496.436 316.185 502.721 316.185 510.474C316.185 510.543 316.189 510.611 316.189 510.682H344.257Z" fill="#B15626"/>
    <path d="M327.519 496.698L332.622 495.139C335.991 488.513 350.355 489.334 348.355 497.398C353.99 498.236 356.956 495.43 356.956 495.43L358.64 510.681H328.206L327.519 496.698Z" fill="#B15626"/>
    <path d="M352.685 293.666C363.21 300.055 364.712 319.025 359.316 326.582L329.28 348.958L359.861 364.706L354.893 380.972C354.893 380.972 322.974 378.375 307.349 362.349C292.344 346.96 328.918 301.759 352.685 293.666Z" fill="#007880"/>
    <path d="M374.039 322.44C365.035 311.135 371.255 293.664 382.731 294.177C420.107 307.336 431.644 343.87 419.803 360.271C409.659 374.322 365.035 379.732 365.035 379.732V364.349L396.041 357.65C396.041 357.652 380.054 332.88 374.039 322.44Z" fill="#007880"/>
    <path d="M341.287 375.835C340.708 370.683 343.722 364.241 351.475 362.833C365.018 360.373 369.92 367.803 371.198 373.116C371.531 374.5 370.274 375.964 369.11 375.835C367.947 375.705 367.13 375.05 366.93 373.996C366.69 372.727 366.018 371.158 364.565 370.339C365.964 373.082 365.38 375.835 361.568 375.835H341.287Z" fill="#F7A594"/>
    <path d="M371.863 375.819L382.521 322.383H384.78C384.059 326.062 373.575 379.53 373.247 381.2C370.455 381.2 344.796 381.2 341.309 381.2L337.82 375.819H371.863Z" fill="#99C1FF"/>
    <path d="M384.777 322.383H464.078L452.35 381.203H373.245L384.777 322.383Z" fill="white"/>
    <path d="M361.658 297.493C361.658 303.574 379.885 307.605 385.843 301.214C386.745 300.256 387.364 299.065 387.603 297.608L391.036 282.208L369.266 274L368.618 276.012L361.658 297.493Z" fill="#F7A594"/>
    <path d="M387.601 297.608L391.034 282.207L370.438 276.662C365.11 292.53 384.132 305.204 387.601 297.608Z" fill="#F4856D"/>
    <path d="M367.658 268.085C366.511 283.221 378.474 296.551 388.51 297.228C398.547 297.905 412.368 286.693 413.512 271.556C414.659 256.42 405.322 243.374 392.659 242.413C379.997 241.457 368.802 252.951 367.658 268.085Z" fill="#F7A594"/>
    <path d="M384.437 243.561C398.317 234.772 405.955 243.038 412.867 251.805C417.717 257.957 421.152 262.377 427.186 263.304C415.576 277.949 392.356 268.287 385.041 253.612C384.32 261.967 374.474 268.886 367.658 268.086C365.447 258.788 371.887 239.996 384.437 243.561Z" fill="#0E0E0E"/>
    <path d="M371.282 274.242C374.576 273.708 376.813 270.605 376.278 267.311C375.744 264.017 372.64 261.781 369.347 262.315C366.053 262.85 363.817 265.953 364.351 269.247C364.886 272.54 367.989 274.777 371.282 274.242Z" fill="#F7A594"/>
  </g>
  <defs>
    <clipPath id="clip0_4664_35456">
      <rect width="548" height="516.7" fill="white"/>
    </clipPath>
  </defs>
</svg>
